<svg width="27" height="25" viewBox="0 0 27 25" fill="none" xmlns="http://www.w3.org/2000/svg">
<path d="M24.001 4.57172C25.4735 4.57198 26.667 5.76607 26.667 7.23871V9.44476C26.667 10.6224 25.8946 11.6611 24.7666 11.9995L14.8662 14.9692C13.8665 15.2691 12.8005 15.2691 11.8008 14.9692L1.90039 11.9995C0.772408 11.6611 0 10.6224 0 9.44476V7.23871C0 5.76591 1.1942 4.57172 2.66699 4.57172H24.001Z" fill="#212121"/>
<path d="M0.103516 13.3409C0.474802 13.5851 0.8834 13.7826 1.3252 13.9151L11.2256 16.8849C12.6002 17.2972 14.0659 17.2972 15.4404 16.8849L25.3408 13.9151C25.7772 13.7842 26.1811 13.5898 26.5488 13.3497V18.6671C26.5487 22.1649 23.7126 25.0001 20.2148 25.0001H6.43652C2.93893 24.9998 0.103635 22.1647 0.103516 18.6671V13.3409ZM26.4717 10.4425C26.1749 11.1771 25.5592 11.7612 24.7666 11.9991L14.8652 14.9688C13.8657 15.2687 12.8004 15.2687 11.8008 14.9688L1.89941 11.9991C1.10709 11.7613 0.491207 11.1776 0.194336 10.4435L13.3262 12.6671L26.4717 10.4425Z" fill="#212121"/>
</svg>
