<svg width="18" height="25" viewBox="0 0 18 25" fill="none" xmlns="http://www.w3.org/2000/svg">
<path d="M14.7857 25H3.21429C2.3618 25 1.54424 24.6687 0.941442 24.0789C0.338647 23.4891 0 22.6892 0 21.8552V3.14481C0 2.31076 0.338647 1.51086 0.941442 0.921094C1.54424 0.331327 2.3618 0 3.21429 0H14.7857C15.6382 0 16.4558 0.331327 17.0586 0.921094C17.6614 1.51086 18 2.31076 18 3.14481V21.8552C18 22.6892 17.6614 23.4891 17.0586 24.0789C16.4558 24.6687 15.6382 25 14.7857 25ZM3.21429 1.25792C2.7028 1.25792 2.21226 1.45672 1.85058 1.81058C1.4889 2.16444 1.28571 2.64438 1.28571 3.14481V21.8552C1.28571 22.3556 1.4889 22.8356 1.85058 23.1894C2.21226 23.5433 2.7028 23.7421 3.21429 23.7421H14.7857C15.2972 23.7421 15.7877 23.5433 16.1494 23.1894C16.5111 22.8356 16.7143 22.3556 16.7143 21.8552V3.14481C16.7143 2.64438 16.5111 2.16444 16.1494 1.81058C15.7877 1.45672 15.2972 1.25792 14.7857 1.25792H3.21429Z" fill="#424242"/>
<path d="M12.2143 9.67847H5.78571C5.27423 9.67847 4.78369 9.47968 4.42201 9.12582C4.06033 8.77196 3.85714 8.29202 3.85714 7.79159V5.66066C3.85714 5.16023 4.06033 4.68029 4.42201 4.32643C4.78369 3.97257 5.27423 3.77377 5.78571 3.77377H12.2143C12.7258 3.77377 13.2163 3.97257 13.578 4.32643C13.9397 4.68029 14.1429 5.16023 14.1429 5.66066V7.79159C14.1429 8.29202 13.9397 8.77196 13.578 9.12582C13.2163 9.47968 12.7258 9.67847 12.2143 9.67847ZM5.78571 5.0317C5.61522 5.0317 5.4517 5.09796 5.33115 5.21592C5.21059 5.33387 5.14286 5.49385 5.14286 5.66066V7.79159C5.14286 7.9584 5.21059 8.11838 5.33115 8.23633C5.4517 8.35428 5.61522 8.42055 5.78571 8.42055H12.2143C12.3848 8.42055 12.5483 8.35428 12.6689 8.23633C12.7894 8.11838 12.8571 7.9584 12.8571 7.79159V5.66066C12.8571 5.49385 12.7894 5.33387 12.6689 5.21592C12.5483 5.09796 12.3848 5.0317 12.2143 5.0317H5.78571Z" fill="#424242"/>
<path d="M9 12.8245C9.53256 12.8245 9.96428 12.4021 9.96428 11.8811C9.96428 11.3601 9.53256 10.9377 9 10.9377C8.46744 10.9377 8.03571 11.3601 8.03571 11.8811C8.03571 12.4021 8.46744 12.8245 9 12.8245Z" fill="#424242"/>
<path d="M13.1786 12.8245C13.7111 12.8245 14.1429 12.4021 14.1429 11.8811C14.1429 11.3601 13.7111 10.9377 13.1786 10.9377C12.646 10.9377 12.2143 11.3601 12.2143 11.8811C12.2143 12.4021 12.646 12.8245 13.1786 12.8245Z" fill="#424242"/>
<path d="M4.82143 12.8245C5.35399 12.8245 5.78571 12.4021 5.78571 11.8811C5.78571 11.3601 5.35399 10.9377 4.82143 10.9377C4.28887 10.9377 3.85714 11.3601 3.85714 11.8811C3.85714 12.4021 4.28887 12.8245 4.82143 12.8245Z" fill="#424242"/>
<path d="M9 17.026C9.53256 17.026 9.96428 16.6036 9.96428 16.0826C9.96428 15.5615 9.53256 15.1391 9 15.1391C8.46744 15.1391 8.03571 15.5615 8.03571 16.0826C8.03571 16.6036 8.46744 17.026 9 17.026Z" fill="#424242"/>
<path d="M13.1786 17.026C13.7111 17.026 14.1429 16.6036 14.1429 16.0826C14.1429 15.5615 13.7111 15.1391 13.1786 15.1391C12.646 15.1391 12.2143 15.5615 12.2143 16.0826C12.2143 16.6036 12.646 17.026 13.1786 17.026Z" fill="#424242"/>
<path d="M4.82143 17.026C5.35399 17.026 5.78571 16.6036 5.78571 16.0826C5.78571 15.5615 5.35399 15.1391 4.82143 15.1391C4.28887 15.1391 3.85714 15.5615 3.85714 16.0826C3.85714 16.6036 4.28887 17.026 4.82143 17.026Z" fill="#424242"/>
<path d="M13.1786 21.2262C13.7111 21.2262 14.1429 20.8038 14.1429 20.2828C14.1429 19.7617 13.7111 19.3393 13.1786 19.3393C12.646 19.3393 12.2143 19.7617 12.2143 20.2828C12.2143 20.8038 12.646 21.2262 13.1786 21.2262Z" fill="#424242"/>
<path d="M9.31886 20.9117H4.5C4.3295 20.9117 4.16599 20.8455 4.04543 20.7275C3.92487 20.6096 3.85714 20.4496 3.85714 20.2828C3.85714 20.116 3.92487 19.956 4.04543 19.838C4.16599 19.7201 4.3295 19.6538 4.5 19.6538H9.31371C9.48421 19.6538 9.64772 19.7201 9.76828 19.838C9.88884 19.956 9.95657 20.116 9.95657 20.2828C9.95657 20.4496 9.88884 20.6096 9.76828 20.7275C9.64772 20.8455 9.48421 20.9117 9.31371 20.9117H9.31886Z" fill="#424242"/>
</svg>
