<svg width="80" height="80" viewBox="0 0 80 80" fill="none" xmlns="http://www.w3.org/2000/svg">
<path d="M74.2812 40C74.2812 38.4807 74.1759 36.9632 73.966 35.4578L79.9505 31.4525C79.3754 28.875 78.5397 26.3597 77.4558 23.9437L70.2105 24.1418C68.7352 21.4636 66.8963 18.9926 64.7439 16.7959L67.171 10.1233C65.1568 8.36725 62.9697 6.81036 60.6417 5.47544L54.9004 9.79322C52.0972 8.46739 49.1217 7.5226 46.0565 6.98512L44.0077 0.193758C42.6778 0.0675849 41.3269 0.00302995 39.955 9.56812e-05C38.5831 -0.00283859 37.2322 0.0617164 35.9023 0.193758L33.8534 6.98512C30.7883 7.5226 27.8127 8.46739 25.0096 9.79322L19.2683 5.47104C16.9567 6.81126 14.7849 8.36945 12.784 10.1233L15.2111 16.7959C13.0587 18.9926 11.2198 21.4636 9.74446 24.1418L2.49465 23.9481C1.41151 26.3553 0.575855 28.8618 0 31.4305L5.98447 35.4402C5.77669 36.9458 5.67139 38.4632 5.66925 39.9824C5.66912 41.5003 5.77444 43.0164 5.98447 44.5203L0 48.53C0.576514 51.0985 1.41215 53.6049 2.49465 56.0123L9.74446 55.8187C11.2183 58.4978 13.0573 60.969 15.2111 63.1646L12.784 69.8768C14.7989 71.6339 16.9876 73.1908 19.3178 74.5247L25.0591 70.2069C27.8617 71.534 30.8375 72.4789 33.903 73.015L35.9473 79.8063C37.2772 79.9354 38.6281 80 40 80C41.3719 80 42.7228 79.9354 44.0527 79.8063L46.1015 73.015C49.1669 72.4782 52.1425 71.5334 54.9454 70.2069L60.6867 74.5247C63.015 73.1898 65.2035 71.6345 67.2205 69.8812L64.7889 63.2042C66.9437 61.011 68.7828 58.5411 70.2555 55.8627L77.5054 56.0564C78.5893 53.6419 79.4249 51.1281 80 48.552L74.0155 44.5423C74.209 43.0358 74.2978 41.5183 74.2812 40ZM39.9685 18.2791C40.3176 18.2791 40.6589 18.3803 40.9492 18.5699C41.2394 18.7595 41.4657 19.0289 41.5993 19.3442C41.7329 19.6595 41.7678 20.0064 41.6997 20.3411C41.6316 20.6758 41.4635 20.9832 41.2166 21.2245C40.9698 21.4658 40.6553 21.6301 40.3128 21.6967C39.9704 21.7632 39.6155 21.7291 39.293 21.5985C38.9704 21.4679 38.6948 21.2468 38.5008 20.963C38.3068 20.6793 38.2033 20.3457 38.2033 20.0045C38.2033 19.5469 38.3893 19.108 38.7203 18.7845C39.0514 18.4609 39.5003 18.2791 39.9685 18.2791ZM19.2052 42.0203C18.8563 42.0194 18.5155 41.9175 18.2258 41.7274C17.9361 41.5373 17.7105 41.2675 17.5776 40.9522C17.4447 40.6368 17.4104 40.29 17.479 39.9556C17.5476 39.6213 17.7161 39.3142 17.9632 39.0734C18.2102 38.8325 18.5247 38.6686 18.867 38.6024C19.2093 38.5362 19.564 38.5706 19.8863 38.7013C20.2085 38.8321 20.484 39.0532 20.6777 39.3368C20.8715 39.6205 20.9749 39.9539 20.9749 40.2949C20.9737 40.7529 20.7867 41.1918 20.455 41.5152C20.1232 41.8387 19.6738 42.0203 19.2052 42.0203ZM26.5361 55.8627C26.2891 56.1036 25.9745 56.2675 25.6322 56.3338C25.2899 56.4001 24.9352 56.3657 24.6129 56.235C24.2906 56.1043 24.0152 55.8831 23.8214 55.5995C23.6276 55.3158 23.5242 54.9824 23.5242 54.6413C23.5242 54.3002 23.6276 53.9668 23.8214 53.6832C24.0152 53.3995 24.2906 53.1784 24.6129 53.0477C24.9352 52.917 25.2899 52.8826 25.6322 52.9488C25.9745 53.0151 26.2891 53.179 26.5361 53.4199C26.8669 53.7442 27.0526 54.1834 27.0526 54.6413C27.0526 55.0992 26.8669 55.5385 26.5361 55.8627ZM26.5361 27.1656C26.2893 27.4071 25.9748 27.5716 25.6323 27.6384C25.2898 27.7052 24.9348 27.6711 24.6121 27.5406C24.2894 27.4101 24.0136 27.1889 23.8196 26.9052C23.6255 26.6214 23.5219 26.2877 23.5219 25.9464C23.5219 25.605 23.6255 25.2714 23.8196 24.9876C24.0136 24.7038 24.2894 24.4827 24.6121 24.3521C24.9348 24.2216 25.2898 24.1876 25.6323 24.2543C25.9748 24.3211 26.2893 24.4856 26.5361 24.7272C26.8666 25.0507 27.0522 25.4892 27.0522 25.9464C27.0522 26.4036 26.8666 26.8421 26.5361 27.1656ZM39.964 62.3108C39.6151 62.3099 39.2742 62.208 38.9845 62.0178C38.6948 61.8277 38.4693 61.558 38.3364 61.2426C38.2035 60.9273 38.1692 60.5805 38.2378 60.2461C38.3064 59.9117 38.4749 59.6047 38.7219 59.3638C38.9689 59.123 39.2835 58.9591 39.6258 58.8929C39.9681 58.8267 40.3227 58.8611 40.645 58.9918C40.9673 59.1225 41.2427 59.3437 41.4365 59.6273C41.6302 59.9109 41.7336 60.2444 41.7336 60.5854C41.7336 60.8124 41.6878 61.0371 41.5989 61.2467C41.5099 61.4563 41.3794 61.6467 41.215 61.807C41.0507 61.9672 40.8555 62.0942 40.6409 62.1807C40.4262 62.2671 40.1962 62.3113 39.964 62.3108ZM39.964 50.8407C37.7706 50.8398 35.6267 50.2033 33.8035 49.0116C31.9802 47.8199 30.5593 46.1265 29.7206 44.1455C28.8818 42.1646 28.6628 39.985 29.0913 37.8824C29.5197 35.7799 30.5764 33.8486 32.1277 32.333C33.6789 30.8173 35.6551 29.7853 37.8064 29.3674C39.9577 28.9494 42.1875 29.1644 44.2138 29.985C46.2401 30.8056 47.972 32.1951 49.1905 33.9778C50.409 35.7604 51.0593 37.8562 51.0593 40C51.0599 41.4238 50.7734 42.8338 50.2163 44.1493C49.6591 45.4648 48.8422 46.6601 47.8122 47.6668C46.7822 48.6736 45.5593 49.4721 44.2135 50.0167C42.8676 50.5613 41.4251 50.8413 39.9685 50.8407H39.964ZM55.891 55.8627C55.6443 56.1042 55.3297 56.2688 54.9873 56.3355C54.6448 56.4023 54.2898 56.3683 53.9671 56.2378C53.6444 56.1072 53.3686 55.8861 53.1745 55.6023C52.9804 55.3185 52.8769 54.9849 52.8769 54.6435C52.8769 54.3022 52.9804 53.9685 53.1745 53.6847C53.3686 53.4009 53.6444 53.1798 53.9671 53.0493C54.2898 52.9188 54.6448 52.8847 54.9873 52.9515C55.3297 53.0182 55.6443 53.1828 55.891 53.4243C56.2211 53.7478 56.4068 54.1858 56.4076 54.6426C56.4084 55.0994 56.2244 55.5381 55.8955 55.8627H55.891ZM55.891 27.17C55.644 27.4109 55.3295 27.5748 54.9872 27.641C54.6449 27.7073 54.2902 27.6729 53.9679 27.5422C53.6455 27.4115 53.3701 27.1904 53.1763 26.9067C52.9825 26.6231 52.8791 26.2896 52.8791 25.9486C52.8791 25.6075 52.9825 25.2741 53.1763 24.9904C53.3701 24.7068 53.6455 24.4856 53.9679 24.3549C54.2902 24.2242 54.6449 24.1898 54.9872 24.2561C55.3295 24.3223 55.644 24.4863 55.891 24.7272C56.0557 24.8871 56.1864 25.0773 56.2757 25.2867C56.3651 25.4962 56.4113 25.7207 56.4117 25.9477C56.4121 26.1746 56.3667 26.3993 56.2782 26.6091C56.1896 26.8188 56.0596 27.0094 55.8955 27.17H55.891ZM60.7227 42.0203C60.3736 42.0203 60.0323 41.9191 59.7421 41.7295C59.4518 41.5399 59.2255 41.2705 59.0919 40.9552C58.9583 40.6399 58.9234 40.293 58.9915 39.9583C59.0596 39.6237 59.2277 39.3162 59.4746 39.0749C59.7214 38.8336 60.036 38.6693 60.3784 38.6027C60.7208 38.5362 61.0757 38.5703 61.3982 38.7009C61.7208 38.8315 61.9965 39.0527 62.1904 39.3364C62.3844 39.6201 62.4879 39.9537 62.4879 40.2949C62.4885 40.5213 62.4434 40.7456 62.3552 40.9549C62.267 41.1642 62.1374 41.3544 61.9738 41.5147C61.8103 41.675 61.616 41.8021 61.4021 41.8889C61.1881 41.9756 60.9588 42.0203 60.7272 42.0203H60.7227Z" fill="#56692E"/>
<path d="M39.9639 66.3028C34.6419 66.3019 29.4396 64.7585 25.0149 61.8678C20.5902 58.9771 17.1418 54.8689 15.1057 50.0626C13.0696 45.2563 12.5374 39.9678 13.5762 34.8659C14.6151 29.7639 17.1783 25.0776 20.9419 21.3996C24.7055 17.7215 29.5004 15.2168 34.7202 14.2023C39.9401 13.1878 45.3506 13.7089 50.2674 15.6998C55.1843 17.6907 59.3868 21.062 62.3434 25.3874C65.3001 29.7128 66.8783 34.798 66.8783 40C66.8699 46.9742 64.0315 53.6603 58.9858 58.5914C53.94 63.5225 47.0991 66.2958 39.9639 66.3028ZM39.9639 14.9648C34.898 14.9639 29.9455 16.4315 25.7329 19.1819C21.5203 21.9322 18.2367 25.8419 16.2974 30.4164C14.3581 34.9909 13.8503 40.0248 14.8381 44.8814C15.8258 49.7381 18.2649 54.1993 21.8467 57.701C25.4286 61.2027 29.9924 63.5875 34.9609 64.5538C39.9295 65.5202 45.0796 65.0246 49.76 63.1299C54.4405 61.2352 58.4409 58.0264 61.2555 53.9093C64.0701 49.7921 65.5724 44.9517 65.5724 40C65.5653 33.3639 62.8657 27.0015 58.0658 22.3083C53.266 17.615 46.7577 14.9741 39.9684 14.9648H39.9639Z" fill="#ABB39A"/>
<path d="M39.9639 55.8011C36.7669 55.8002 33.6418 54.8727 30.984 53.136C28.3261 51.3992 26.2548 48.9311 25.032 46.0438C23.8091 43.1564 23.4896 39.9795 24.1139 36.9147C24.7382 33.8499 26.2782 31.0348 28.5392 28.8254C30.8002 26.6161 33.6806 25.1116 36.8163 24.5023C39.9521 23.8929 43.2022 24.2061 46.1558 25.4022C49.1095 26.5983 51.634 28.6235 53.4101 31.2219C55.1862 33.8203 56.1342 36.8751 56.1342 40C56.1282 44.1897 54.4225 48.206 51.3912 51.1682C48.3598 54.1303 44.2503 55.7964 39.9639 55.8011ZM39.9639 25.1497C36.9589 25.1488 34.021 26.019 31.5219 27.6503C29.0228 29.2815 27.0748 31.6005 25.9242 34.314C24.7736 37.0275 24.472 40.0135 25.0578 42.8945C25.6435 45.7754 27.0901 48.4219 29.2147 50.4992C31.3393 52.5765 34.0465 53.9913 36.9938 54.5647C39.9411 55.138 42.9961 54.8442 45.7725 53.7204C48.549 52.5965 50.9221 50.6931 52.5917 48.2509C54.2613 45.8087 55.1525 42.9373 55.1525 40C55.1477 36.0644 53.5468 32.2912 50.7005 29.5075C47.8542 26.7238 43.9949 25.1567 39.9685 25.1497H39.9639Z" fill="#ABB39A"/>
<g style="mix-blend-mode:screen">
<path d="M40.0633 70.1541V69.648C47.09 69.6582 53.9029 67.286 59.3404 62.9358C64.778 58.5856 68.5036 52.5267 69.8821 45.7919C71.2607 39.0572 70.2068 32.0636 66.9003 26.0034C63.5937 19.9431 58.2391 15.1914 51.7492 12.5583C45.2594 9.92523 38.0361 9.57375 31.3108 11.5638C24.5855 13.5538 18.7746 17.7622 14.8685 23.4714C10.9625 29.1807 9.20321 36.0374 9.89061 42.8727C10.578 49.708 13.6695 56.0986 18.6381 60.9552C24.3249 66.5131 32.035 69.6393 40.0768 69.648V70.1541C33.9791 70.1515 28.0191 68.3819 22.9501 65.069C17.8812 61.7561 13.9309 57.0486 11.5986 51.5416C9.26635 46.0346 8.65683 39.9754 9.84709 34.1299C11.0374 28.2844 13.974 22.915 18.2857 18.7005C22.5974 14.4861 28.0907 11.6157 34.0711 10.4523C40.0516 9.28889 46.2506 9.88467 51.8847 12.1643C57.5188 14.444 62.3349 18.3051 65.7243 23.2597C69.1136 28.2143 70.9241 34.0399 70.9268 40.0001C70.9537 43.9685 70.1737 47.9025 68.6321 51.5737C67.0904 55.2449 64.8178 58.5801 61.9463 61.3856C59.0748 64.1911 55.6616 66.411 51.905 67.9162C48.1484 69.4215 44.1233 70.1822 40.0633 70.1541Z" fill="#ABB39A"/>
</g>
<g style="mix-blend-mode:multiply">
<path d="M39.8688 70.1541V69.6479C46.895 69.6551 53.7062 67.2804 59.1416 62.9284C64.5769 58.5765 68.2999 52.5168 69.6761 45.7822C71.0522 39.0476 69.9963 32.0549 66.6883 25.996C63.3802 19.9372 58.0248 15.1872 51.5349 12.5558C45.045 9.92431 37.8223 9.57423 31.0979 11.5652C24.3735 13.5562 18.5637 17.765 14.6586 23.4742C10.7535 29.1834 8.99501 36.0397 9.68275 42.8743C10.3705 49.709 13.4619 56.099 18.4301 60.9552C24.1169 66.5131 31.8269 69.6393 39.8688 69.6479V70.1541C33.7711 70.1515 27.8111 68.3819 22.7421 65.069C17.6732 61.7561 13.7229 57.0486 11.3906 51.5416C9.05835 46.0346 8.44882 39.9754 9.63908 34.1299C10.8293 28.2844 13.766 22.915 18.0777 18.7005C22.3894 14.4861 27.8827 11.6157 33.8631 10.4523C39.8436 9.28889 46.0426 9.88467 51.6767 12.1643C57.3108 14.444 62.1269 18.3051 65.5163 23.2597C68.9056 28.2143 70.7161 34.0399 70.7188 40.0001C70.7457 43.9673 69.9661 47.9003 68.4253 51.5706C66.8845 55.241 64.6131 58.5756 61.7431 61.3809C58.873 64.1862 55.4614 66.4063 51.7064 67.9124C47.9513 69.4184 43.9276 70.1804 39.8688 70.1541Z" fill="#ABB39A"/>
</g>
</svg>
