<svg width="19" height="25" viewBox="0 0 19 25" fill="none" xmlns="http://www.w3.org/2000/svg">
<path fill-rule="evenodd" clip-rule="evenodd" d="M2.18329 15.9744L9.5 25L16.8167 15.9744C18.23 14.2311 19 12.0649 19 9.83228V9.375C19 4.19733 14.7467 0 9.5 0C4.25329 0 0 4.19733 0 9.375V9.83228C0 12.0649 0.769975 14.2311 2.18329 15.9744ZM9.5 12.5C11.2489 12.5 12.6667 11.1009 12.6667 9.375C12.6667 7.64911 11.2489 6.25 9.5 6.25C7.7511 6.25 6.33333 7.64911 6.33333 9.375C6.33333 11.1009 7.7511 12.5 9.5 12.5Z" fill="#212121"/>
</svg>
