<svg width="23" height="18" viewBox="0 0 23 18" fill="none" xmlns="http://www.w3.org/2000/svg">
<path d="M0 5.27473V14.7033C0 15.5776 0.346173 16.4162 0.962364 17.0344C1.57855 17.6527 2.41429 18 3.28571 18H19.7143C20.5857 18 21.4214 17.6527 22.0376 17.0344C22.6538 16.4162 23 15.5776 23 14.7033V5.27473L13.2217 11.311C12.7039 11.6306 12.1079 11.7998 11.5 11.7998C10.8921 11.7998 10.2961 11.6306 9.77829 11.311L0 5.27473Z" fill="#212121"/>
<path d="M23 3.47033V3.2967C23 2.42236 22.6538 1.58383 22.0376 0.965582C21.4214 0.34733 20.5857 0 19.7143 0H3.28571C2.41429 0 1.57855 0.34733 0.962364 0.965582C0.346173 1.58383 0 2.42236 0 3.2967V3.47033L10.6391 10.0396C10.898 10.1994 11.196 10.284 11.5 10.284C11.804 10.284 12.102 10.1994 12.3609 10.0396L23 3.47033Z" fill="#212121"/>
</svg>
