<svg width="16" height="20" viewBox="0 0 16 20" fill="none" xmlns="http://www.w3.org/2000/svg">
<path d="M0 4.35315L2.39009 8.68228V11.3229L0.002796 15.6436L0 4.35315Z" fill="#424242"/>
<path d="M9.17578 7.10724L11.4154 5.71625L15.9988 5.71191L9.17578 9.94755V7.10724Z" fill="#424242"/>
<path d="M9.16426 4.3278L9.17693 10.0594L6.78125 8.56777V0L9.16426 4.3278Z" fill="#424242"/>
<path d="M16 5.71179L11.4164 5.71612L9.16426 4.3278L6.78125 0L16 5.71179Z" fill="#424242"/>
<path d="M9.17693 15.6678V12.887L6.78125 11.4237L6.78257 20L9.17693 15.6678Z" fill="#424242"/>
<path d="M11.411 14.2892L2.38992 8.68228L0 4.35315L15.9903 14.2836L11.411 14.2892Z" fill="#424242"/>
<path d="M6.78125 19.9998L9.17528 15.6677L11.4093 14.2894L15.9886 14.2837L6.78125 19.9998Z" fill="#424242"/>
<path d="M0.00390625 15.6438L6.80197 11.4238L4.51648 10.0028L2.3912 11.3231L0.00390625 15.6438Z" fill="#424242"/>
</svg>
