<svg width="25" height="20" viewBox="0 0 25 20" fill="none" xmlns="http://www.w3.org/2000/svg">
<path d="M13.3456 16.7509L19.2716 16.75C20.6544 16.75 21.3459 16.75 21.8741 16.5047C22.3386 16.2891 22.7164 15.9448 22.9531 15.5215C23.2222 15.0402 23.2222 14.4101 23.2222 13.15V4.6C23.2222 3.33989 23.2222 2.70982 22.9531 2.22852C22.7164 1.80515 22.3386 1.46095 21.8741 1.24524C21.3459 1 20.6544 1 19.2716 1H4.95062C3.56778 1 2.87634 1 2.34818 1.24524C1.88356 1.46095 1.50584 1.80515 1.26912 2.22852C1 2.70982 1 3.33989 1 4.6V12.25M1 5.5H21.9877M8.40741 16.7509L1 16.75M8.40741 16.7509L5.93827 14.5M8.40741 16.7509L5.93827 19" stroke="#424242" stroke-width="2" stroke-linecap="round" stroke-linejoin="round"/>
</svg>
