<svg width="22" height="22" viewBox="0 0 22 22" fill="none" xmlns="http://www.w3.org/2000/svg">
<path d="M8 14L14 8" stroke="#424242" stroke-width="2" stroke-linecap="round"/>
<path d="M14.5 13.5C14.5 14.0523 14.0523 14.5 13.5 14.5C12.9477 14.5 12.5 14.0523 12.5 13.5C12.5 12.9477 12.9477 12.5 13.5 12.5C14.0523 12.5 14.5 12.9477 14.5 13.5Z" fill="#424242" stroke="#424242"/>
<path d="M9.5 8.5C9.5 9.0523 9.0523 9.5 8.5 9.5C7.94772 9.5 7.5 9.0523 7.5 8.5C7.5 7.94772 7.94772 7.5 8.5 7.5C9.0523 7.5 9.5 7.94772 9.5 8.5Z" fill="#424242" stroke="#424242"/>
<path d="M1 11C1 6.28595 1 3.92893 2.46447 2.46447C3.92893 1 6.28595 1 11 1C15.714 1 18.0711 1 19.5355 2.46447C21 3.92893 21 6.28595 21 11C21 15.714 21 18.0711 19.5355 19.5355C18.0711 21 15.714 21 11 21C6.28595 21 3.92893 21 2.46447 19.5355C1 18.0711 1 15.714 1 11Z" stroke="#424242" stroke-width="2"/>
</svg>
