<svg width="23" height="23" viewBox="0 0 23 23" fill="none" xmlns="http://www.w3.org/2000/svg">
<path d="M22.0977 3.09607C22.0977 1.43922 20.7546 0.0960693 19.0977 0.0960693H15.0977C14.5454 0.0960693 14.0977 0.543789 14.0977 1.09607C14.0977 1.64835 14.5454 2.09607 15.0977 2.09607H19.0977C19.65 2.09607 20.0977 2.54379 20.0977 3.09607V7.09607C20.0977 7.64835 20.5454 8.09607 21.0977 8.09607C21.65 8.09607 22.0977 7.64835 22.0977 7.09607V3.09607Z" fill="#424242"/>
<path d="M22.0977 15.0961C22.0977 14.5438 21.65 14.0961 21.0977 14.0961C20.5454 14.0961 20.0977 14.5438 20.0977 15.0961V19.0961C20.0977 19.6484 19.65 20.0961 19.0977 20.0961H15.0977C14.5454 20.0961 14.0977 20.5438 14.0977 21.0961C14.0977 21.6484 14.5454 22.0961 15.0977 22.0961H19.0977C20.7546 22.0961 22.0977 20.753 22.0977 19.0961V15.0961Z" fill="#424242"/>
<path d="M3.09766 20.0961C2.54538 20.0961 2.09766 19.6484 2.09766 19.0961V15.0961C2.09766 14.5438 1.64994 14.0961 1.09766 14.0961C0.545376 14.0961 0.0976562 14.5438 0.0976562 15.0961V19.0961C0.0976562 20.753 1.44081 22.0961 3.09766 22.0961H7.09766C7.64994 22.0961 8.09766 21.6484 8.09766 21.0961C8.09766 20.5438 7.64994 20.0961 7.09766 20.0961H3.09766Z" fill="#424242"/>
<path d="M0.0976562 7.09607C0.0976562 7.64835 0.545376 8.09607 1.09766 8.09607C1.64994 8.09607 2.09766 7.64835 2.09766 7.09607V3.09607C2.09766 2.54379 2.54538 2.09607 3.09766 2.09607H7.09766C7.64994 2.09607 8.09766 1.64835 8.09766 1.09607C8.09766 0.543789 7.64994 0.0960693 7.09766 0.0960693H3.09766C1.44081 0.0960693 0.0976562 1.43922 0.0976562 3.09607V7.09607Z" fill="#424242"/>
<path fill-rule="evenodd" clip-rule="evenodd" d="M10.0977 5.09607C10.0977 4.54379 9.64996 4.09607 9.09766 4.09607H5.09766C4.54538 4.09607 4.09766 4.54379 4.09766 5.09607V9.09607C4.09766 9.64837 4.54538 10.0961 5.09766 10.0961H9.09766C9.64996 10.0961 10.0977 9.64837 10.0977 9.09607V5.09607ZM8.09766 6.59607C8.09766 6.31993 7.8738 6.09607 7.59766 6.09607H6.59766C6.32152 6.09607 6.09766 6.31993 6.09766 6.59607V7.59607C6.09766 7.87221 6.32152 8.09607 6.59766 8.09607H7.59766C7.8738 8.09607 8.09766 7.87221 8.09766 7.59607V6.59607Z" fill="#424242"/>
<path fill-rule="evenodd" clip-rule="evenodd" d="M17.0977 12.0961C17.65 12.0961 18.0977 12.5438 18.0977 13.0961V17.0961C18.0977 17.6484 17.65 18.0961 17.0977 18.0961H13.0977C12.5454 18.0961 12.0977 17.6484 12.0977 17.0961V13.0961C12.0977 12.5438 12.5454 12.0961 13.0977 12.0961H17.0977ZM14.0977 14.5961C14.0977 14.32 14.3216 14.0961 14.5977 14.0961H15.5977C15.8738 14.0961 16.0977 14.32 16.0977 14.5961V15.5961C16.0977 15.8722 15.8738 16.0961 15.5977 16.0961H14.5977C14.3216 16.0961 14.0977 15.8722 14.0977 15.5961V14.5961Z" fill="#424242"/>
<path d="M13.0977 4.09607C12.5454 4.09607 12.0977 4.54379 12.0977 5.09607C12.0977 5.64836 12.5454 6.09607 13.0977 6.09607H15.5977C15.8738 6.09607 16.0977 6.31993 16.0977 6.59607V9.09607C16.0977 9.64837 16.5454 10.0961 17.0977 10.0961C17.65 10.0961 18.0977 9.64837 18.0977 9.09607V5.09607C18.0977 4.54379 17.65 4.09607 17.0977 4.09607H13.0977Z" fill="#424242"/>
<path d="M13.0977 7.09607C12.5454 7.09607 12.0977 7.54378 12.0977 8.09607V9.09607C12.0977 9.64837 12.5454 10.0961 13.0977 10.0961C13.65 10.0961 14.0977 9.64837 14.0977 9.09607V8.09607C14.0977 7.54379 13.65 7.09607 13.0977 7.09607Z" fill="#424242"/>
<path d="M5.09766 12.0961C4.54538 12.0961 4.09766 12.5438 4.09766 13.0961V15.0961C4.09766 15.6484 4.54538 16.0961 5.09766 16.0961C5.64995 16.0961 6.09766 15.6484 6.09766 15.0961V14.5961C6.09766 14.32 6.32152 14.0961 6.59766 14.0961H9.09766C9.64996 14.0961 10.0977 13.6484 10.0977 13.0961C10.0977 12.5438 9.64996 12.0961 9.09766 12.0961H5.09766Z" fill="#424242"/>
<path d="M9.09766 16.0961C8.54537 16.0961 8.09766 16.5438 8.09766 17.0961C8.09766 17.6484 8.54537 18.0961 9.09766 18.0961C9.64996 18.0961 10.0977 17.6484 10.0977 17.0961C10.0977 16.5438 9.64996 16.0961 9.09766 16.0961Z" fill="#424242"/>
<path d="M22.0977 3.09607C22.0977 1.43922 20.7546 0.0960693 19.0977 0.0960693H15.0977C14.5454 0.0960693 14.0977 0.543789 14.0977 1.09607C14.0977 1.64835 14.5454 2.09607 15.0977 2.09607H19.0977C19.65 2.09607 20.0977 2.54379 20.0977 3.09607V7.09607C20.0977 7.64835 20.5454 8.09607 21.0977 8.09607C21.65 8.09607 22.0977 7.64835 22.0977 7.09607V3.09607Z" stroke="#424242" stroke-width="0.19209"/>
<path d="M22.0977 15.0961C22.0977 14.5438 21.65 14.0961 21.0977 14.0961C20.5454 14.0961 20.0977 14.5438 20.0977 15.0961V19.0961C20.0977 19.6484 19.65 20.0961 19.0977 20.0961H15.0977C14.5454 20.0961 14.0977 20.5438 14.0977 21.0961C14.0977 21.6484 14.5454 22.0961 15.0977 22.0961H19.0977C20.7546 22.0961 22.0977 20.753 22.0977 19.0961V15.0961Z" stroke="#424242" stroke-width="0.19209"/>
<path d="M3.09766 20.0961C2.54538 20.0961 2.09766 19.6484 2.09766 19.0961V15.0961C2.09766 14.5438 1.64994 14.0961 1.09766 14.0961C0.545376 14.0961 0.0976562 14.5438 0.0976562 15.0961V19.0961C0.0976562 20.753 1.44081 22.0961 3.09766 22.0961H7.09766C7.64994 22.0961 8.09766 21.6484 8.09766 21.0961C8.09766 20.5438 7.64994 20.0961 7.09766 20.0961H3.09766Z" stroke="#424242" stroke-width="0.19209"/>
<path d="M0.0976562 7.09607C0.0976562 7.64835 0.545376 8.09607 1.09766 8.09607C1.64994 8.09607 2.09766 7.64835 2.09766 7.09607V3.09607C2.09766 2.54379 2.54538 2.09607 3.09766 2.09607H7.09766C7.64994 2.09607 8.09766 1.64835 8.09766 1.09607C8.09766 0.543789 7.64994 0.0960693 7.09766 0.0960693H3.09766C1.44081 0.0960693 0.0976562 1.43922 0.0976562 3.09607V7.09607Z" stroke="#424242" stroke-width="0.19209"/>
<path fill-rule="evenodd" clip-rule="evenodd" d="M10.0977 5.09607C10.0977 4.54379 9.64996 4.09607 9.09766 4.09607H5.09766C4.54538 4.09607 4.09766 4.54379 4.09766 5.09607V9.09607C4.09766 9.64837 4.54538 10.0961 5.09766 10.0961H9.09766C9.64996 10.0961 10.0977 9.64837 10.0977 9.09607V5.09607ZM8.09766 6.59607C8.09766 6.31993 7.8738 6.09607 7.59766 6.09607H6.59766C6.32152 6.09607 6.09766 6.31993 6.09766 6.59607V7.59607C6.09766 7.87221 6.32152 8.09607 6.59766 8.09607H7.59766C7.8738 8.09607 8.09766 7.87221 8.09766 7.59607V6.59607Z" stroke="#424242" stroke-width="0.19209"/>
<path fill-rule="evenodd" clip-rule="evenodd" d="M17.0977 12.0961C17.65 12.0961 18.0977 12.5438 18.0977 13.0961V17.0961C18.0977 17.6484 17.65 18.0961 17.0977 18.0961H13.0977C12.5454 18.0961 12.0977 17.6484 12.0977 17.0961V13.0961C12.0977 12.5438 12.5454 12.0961 13.0977 12.0961H17.0977ZM14.0977 14.5961C14.0977 14.32 14.3216 14.0961 14.5977 14.0961H15.5977C15.8738 14.0961 16.0977 14.32 16.0977 14.5961V15.5961C16.0977 15.8722 15.8738 16.0961 15.5977 16.0961H14.5977C14.3216 16.0961 14.0977 15.8722 14.0977 15.5961V14.5961Z" stroke="#424242" stroke-width="0.19209"/>
<path d="M13.0977 4.09607C12.5454 4.09607 12.0977 4.54379 12.0977 5.09607C12.0977 5.64836 12.5454 6.09607 13.0977 6.09607H15.5977C15.8738 6.09607 16.0977 6.31993 16.0977 6.59607V9.09607C16.0977 9.64837 16.5454 10.0961 17.0977 10.0961C17.65 10.0961 18.0977 9.64837 18.0977 9.09607V5.09607C18.0977 4.54379 17.65 4.09607 17.0977 4.09607H13.0977Z" stroke="#424242" stroke-width="0.19209"/>
<path d="M13.0977 7.09607C12.5454 7.09607 12.0977 7.54378 12.0977 8.09607V9.09607C12.0977 9.64837 12.5454 10.0961 13.0977 10.0961C13.65 10.0961 14.0977 9.64837 14.0977 9.09607V8.09607C14.0977 7.54379 13.65 7.09607 13.0977 7.09607Z" stroke="#424242" stroke-width="0.19209"/>
<path d="M5.09766 12.0961C4.54538 12.0961 4.09766 12.5438 4.09766 13.0961V15.0961C4.09766 15.6484 4.54538 16.0961 5.09766 16.0961C5.64995 16.0961 6.09766 15.6484 6.09766 15.0961V14.5961C6.09766 14.32 6.32152 14.0961 6.59766 14.0961H9.09766C9.64996 14.0961 10.0977 13.6484 10.0977 13.0961C10.0977 12.5438 9.64996 12.0961 9.09766 12.0961H5.09766Z" stroke="#424242" stroke-width="0.19209"/>
<path d="M9.09766 16.0961C8.54537 16.0961 8.09766 16.5438 8.09766 17.0961C8.09766 17.6484 8.54537 18.0961 9.09766 18.0961C9.64996 18.0961 10.0977 17.6484 10.0977 17.0961C10.0977 16.5438 9.64996 16.0961 9.09766 16.0961Z" stroke="#424242" stroke-width="0.19209"/>
</svg>
