<svg width="22" height="22" viewBox="0 0 22 22" fill="none" xmlns="http://www.w3.org/2000/svg">
<path fill-rule="evenodd" clip-rule="evenodd" d="M0 3.14286C0 2.30932 0.331122 1.50992 0.920522 0.920522C1.50992 0.331122 2.30932 0 3.14286 0H4.58019C5.48114 0 6.26686 0.613905 6.48581 1.48762L7.64343 6.12124C7.73724 6.49628 7.71829 6.89067 7.58896 7.255C7.45963 7.61932 7.22567 7.93738 6.91638 8.16933L5.56181 9.18552C5.42038 9.29133 5.39 9.44638 5.42981 9.55429C6.02106 11.1622 6.95472 12.6225 8.16613 13.8339C9.37755 15.0453 10.8378 15.9789 12.4457 16.5702C12.5536 16.61 12.7076 16.5796 12.8145 16.4382L13.8307 15.0836C14.0626 14.7743 14.3807 14.5404 14.745 14.411C15.1093 14.2817 15.5037 14.2628 15.8788 14.3566L20.5124 15.5142C21.3861 15.7331 22 16.5189 22 17.4209V18.8571C22 19.6907 21.6689 20.4901 21.0795 21.0795C20.4901 21.6689 19.6907 22 18.8571 22H16.5C7.38781 22 0 14.6122 0 5.5V3.14286Z" fill="#212121"/>
</svg>
