<svg width="27" height="25" viewBox="0 0 27 25" fill="none" xmlns="http://www.w3.org/2000/svg">
<path d="M2.25 0C1.00781 0 0 1.0498 0 2.34375V12.5H6.75C7.1625 12.5 7.5 12.8516 7.5 13.2812C7.5 13.7109 7.1625 14.0625 6.75 14.0625H0V17.1875H6.75C7.1625 17.1875 7.5 17.5391 7.5 17.9688C7.5 18.3984 7.1625 18.75 6.75 18.75H0V22.6562C0 23.9502 1.00781 25 2.25 25H12.4641C12.1687 24.502 12 23.916 12 23.2861C12 20.9961 13.2094 18.999 15 17.9541V2.34375C15 1.0498 13.9922 0 12.75 0H2.25ZM7.125 3.125H7.875C8.2875 3.125 8.625 3.47656 8.625 3.90625V5.07812H9.75C10.1625 5.07812 10.5 5.42969 10.5 5.85938V6.64062C10.5 7.07031 10.1625 7.42188 9.75 7.42188H8.625V8.59375C8.625 9.02344 8.2875 9.375 7.875 9.375H7.125C6.7125 9.375 6.375 9.02344 6.375 8.59375V7.42188H5.25C4.8375 7.42188 4.5 7.07031 4.5 6.64062V5.85938C4.5 5.42969 4.8375 5.07812 5.25 5.07812H6.375V3.90625C6.375 3.47656 6.7125 3.125 7.125 3.125ZM24 13.2812C24 12.2452 23.6049 11.2517 22.9016 10.5191C22.1984 9.78655 21.2446 9.375 20.25 9.375C19.2554 9.375 18.3016 9.78655 17.5984 10.5191C16.8951 11.2517 16.5 12.2452 16.5 13.2812C16.5 14.3173 16.8951 15.3108 17.5984 16.0434C18.3016 16.7759 19.2554 17.1875 20.25 17.1875C21.2446 17.1875 22.1984 16.7759 22.9016 16.0434C23.6049 15.3108 24 14.3173 24 13.2812ZM13.5 23.2959C13.5 24.2383 14.2312 25 15.1359 25H25.3641C26.2687 25 27 24.2383 27 23.2959C27 20.7861 25.0453 18.75 22.6359 18.75H17.8641C15.4547 18.75 13.5 20.7861 13.5 23.2959Z" fill="#212121"/>
</svg>
