<svg width="50" height="40" viewBox="0 0 50 40" fill="none" xmlns="http://www.w3.org/2000/svg">
<path d="M21.3403 2.85209L19.526 0C6.97358 8.627 0 19.109 0 27.736C0 36.0778 5.99839 40 11.0885 40C17.5042 40 22.0365 34.4373 22.0365 28.5916C22.0365 23.6724 18.9681 19.4649 14.8532 17.8952C13.6682 17.4662 12.5524 17.1103 12.5524 15.0431C12.5524 12.4055 14.4359 8.48554 21.3403 2.85209ZM49.0248 2.85209L47.2106 0C34.7965 8.627 27.6845 19.109 27.6845 27.736C27.6845 36.0778 33.8213 40 38.9115 40C45.3963 40 50 34.4373 50 28.5916C50 23.6724 46.8624 19.4649 42.6069 17.8952C41.4219 17.4662 40.3753 17.1103 40.3753 15.0431C40.3753 12.4055 42.3279 8.48326 49.0226 2.84981L49.0248 2.85209Z" fill="#3D5648"/>
</svg>
