<svg width="20" height="20" viewBox="0 0 20 20" fill="none" xmlns="http://www.w3.org/2000/svg">
<path d="M8.07692 14.3594C4.61046 14.3594 1.79076 11.5412 1.79076 8.07691C1.79076 4.61045 4.61046 1.79078 8.07692 1.79078C11.5434 1.79078 14.3638 4.61045 14.3638 8.07691C14.3638 11.5412 11.5434 14.3594 8.07692 14.3594ZM18.8657 17.6066L14.3836 13.1245C15.5261 11.6966 16.1546 9.90804 16.1546 8.07691C16.1546 3.62338 12.5312 -2.28882e-05 8.07692 -2.28882e-05C3.62338 -2.28882e-05 0 3.62338 0 8.07691C0 12.5312 3.62338 16.1546 8.07692 16.1546C9.90879 16.1546 11.6959 15.5276 13.1201 14.3873L17.6029 18.8657C17.7716 19.0344 17.996 19.1275 18.2343 19.1275C18.4719 19.1275 18.6963 19.0344 18.865 18.8657C19.0344 18.6985 19.1275 18.4748 19.1275 18.2358C19.1275 17.9967 19.0344 17.7738 18.8657 17.6066Z" fill="#424242"/>
</svg>
