<svg width="25" height="25" viewBox="0 0 25 25" fill="none" xmlns="http://www.w3.org/2000/svg">
<path fill-rule="evenodd" clip-rule="evenodd" d="M25 12.5C25 19.4036 19.4036 25 12.5 25C5.59644 25 0 19.4036 0 12.5C0 5.59644 5.59644 0 12.5 0C19.4036 0 25 5.59644 25 12.5ZM13.1943 12.2124V5.51385C13.1943 5.13032 12.8835 4.8194 12.4999 4.8194C12.1164 4.8194 11.8054 5.13032 11.8054 5.51385V12.4583C11.8054 12.4653 11.8056 12.4724 11.8058 12.4793C11.8003 12.6639 11.8681 12.8501 12.0089 12.991L15.9372 16.9193C16.2085 17.1906 16.6482 17.1906 16.9193 16.9193C17.1906 16.6482 17.1906 16.2085 16.9193 15.9372L13.1943 12.2124Z" fill="#212121"/>
</svg>
