<svg width="58" height="58" viewBox="0 0 58 58" fill="none" xmlns="http://www.w3.org/2000/svg">
<path d="M48.8548 44.8236C48.7069 44.0714 48.5257 43.2377 48.3087 42.3297C48.2205 41.9679 48.1251 41.5942 48.0249 41.2061C47.9772 41.0145 47.9248 40.818 47.8699 40.6192C47.8151 40.4203 47.7578 40.2215 47.703 40.0155C47.5313 39.4069 47.3429 38.7729 47.1378 38.1133L47.009 37.7132C46.9208 37.4497 46.8278 37.1861 46.7324 36.9298L46.5822 36.5441C46.544 36.4458 46.5035 36.35 46.463 36.2542L46.7491 36.1344C47.2499 35.9164 47.7483 35.6792 48.2443 35.4157C54.733 32.009 57.9976 29.0024 57.9976 29.0024C57.9976 29.0024 54.733 25.991 48.2443 22.5843C47.7483 22.3256 47.2499 22.086 46.7491 21.8656L46.463 21.7458C46.5035 21.65 46.544 21.5518 46.5822 21.4535L46.7324 21.0702C46.8278 20.8115 46.9208 20.5504 47.009 20.2868L47.1378 19.8867C47.3429 19.2287 47.5313 18.5899 47.703 17.9702C47.7578 17.7665 47.8151 17.5653 47.8699 17.3689C47.9248 17.1724 47.9772 16.9736 48.0249 16.7795C48.1251 16.3962 48.2205 16.0201 48.3087 15.6583C48.5249 14.7512 48.7069 13.919 48.8548 13.162C48.9573 12.6349 49.0456 12.1462 49.1195 11.7006C49.3082 10.6161 49.438 9.52202 49.5082 8.4233C49.3961 8.4233 44.9916 8.6437 38.0975 10.819C37.5634 10.9883 37.0435 11.1744 36.5379 11.3772L36.154 11.5353L36.1397 11.5042C36.1135 11.4371 36.0849 11.3724 36.0562 11.3077C36.0038 11.1808 35.9489 11.0682 35.8917 10.9292C35.7224 10.5507 35.5435 10.1793 35.3456 9.80322C34.4442 8.07113 33.5714 6.56663 32.7773 5.29451L32.4983 4.85609C32.4077 4.71235 32.3147 4.571 32.2289 4.43205L32.0953 4.23082C31.9634 4.02958 31.8346 3.83552 31.709 3.64866L31.4705 3.28451C31.43 3.22462 31.3918 3.16712 31.3513 3.11202L31.1128 2.77423C30.922 2.50351 30.7408 2.25196 30.5691 2.02198L30.2758 1.62429L30.0063 1.27212C29.806 1.01578 29.6343 0.792979 29.4865 0.618093L29.2647 0.349773C29.0692 0.110203 28.9666 0.00479317 28.9666 0.00479317C28.9666 0.00479317 28.8617 0.119786 28.6661 0.349773L28.4444 0.618093C28.2989 0.797771 28.1248 1.01578 27.9245 1.27212C27.8411 1.38472 27.7504 1.51169 27.6574 1.62429L27.3617 2.02198C27.1924 2.26155 27.0112 2.50112 26.8204 2.77423C26.7417 2.88443 26.6654 2.99463 26.5819 3.11202L26.4627 3.28451L26.2242 3.64866C26.0986 3.83552 25.9699 4.02958 25.8379 4.23082C25.7068 4.42966 25.5732 4.63809 25.4349 4.85609L25.1559 5.29451C25.0653 5.44544 24.9675 5.59876 24.8721 5.75448C24.6814 6.07391 24.4866 6.39893 24.2879 6.72954C24.2378 6.81339 24.1901 6.89723 24.1377 6.98348L23.8348 7.50814C23.4294 8.22685 23.0097 8.98868 22.5876 9.80322L22.3968 10.1793C22.2705 10.4189 22.1584 10.6777 22.0415 10.9292C21.9843 11.0562 21.9294 11.1688 21.877 11.3077C21.846 11.3748 21.8198 11.4443 21.7911 11.5138L21.4621 11.3772C20.9565 11.176 20.4343 10.9891 19.9001 10.819C12.9154 8.61974 8.48944 8.4233 8.48944 8.4233C8.56261 9.5263 8.69636 10.6244 8.89006 11.7126C8.9306 11.9665 8.97829 12.2373 9.03075 12.5176C9.05698 12.6589 9.0856 12.8026 9.11184 12.9512C9.12853 13.0254 9.14045 13.0997 9.15476 13.174C9.23107 13.5525 9.31215 13.9502 9.39322 14.3718C9.73662 15.953 10.2112 17.8121 10.8622 19.8963C10.948 20.1646 11.0363 20.4306 11.1269 20.6917C11.2175 20.9528 11.3153 21.2092 11.4178 21.4631C11.456 21.5613 11.4965 21.6596 11.537 21.7554L11.2509 21.8776C10.7501 22.0932 10.2517 22.3328 9.75331 22.5963C3.26462 26.003 0 29.0144 0 29.0144C0 29.0144 3.26462 32.021 9.75331 35.4277C10.2517 35.6888 10.7501 35.926 11.2509 36.1464L11.537 36.2686C11.4965 36.3644 11.456 36.4602 11.4178 36.5584C11.3153 36.8124 11.2199 37.0711 11.1269 37.3323C11.0339 37.5934 10.948 37.8593 10.8622 38.1276C10.2112 40.2119 9.73662 42.0662 9.39322 43.6378C9.30261 44.0546 9.22153 44.4523 9.15476 44.8356C9.14045 44.9123 9.12853 44.9865 9.11184 45.0608C9.0856 45.2069 9.05698 45.3531 9.03075 45.4944C8.97829 45.7771 8.9306 46.0454 8.89006 46.3018C8.69742 47.386 8.56447 48.4801 8.49182 49.5791C8.49182 49.5791 12.9178 49.3874 19.9025 47.1834C20.4366 47.0157 20.9589 46.8288 21.4644 46.6276L21.6576 46.5461C21.722 46.5222 21.784 46.4934 21.8484 46.4647C21.8794 46.5413 21.9128 46.618 21.9461 46.7043C22.1059 47.0828 22.2776 47.4565 22.466 47.8326C22.528 47.9596 22.5924 48.0842 22.6568 48.2088C25.9405 54.5214 28.8569 57.7916 29.0334 58C29.1741 57.8395 31.027 55.76 33.4164 51.7712C33.6088 51.4517 33.8067 51.1147 34.0102 50.7602C34.2105 50.4104 34.4148 50.0479 34.6231 49.6725L34.9331 49.1024C34.9879 49.0065 35.0404 48.9083 35.0928 48.8077C35.1954 48.6088 35.3027 48.41 35.4076 48.2064C35.5388 47.9668 35.6628 47.7057 35.782 47.4541C35.8424 47.3295 35.8997 47.205 35.9537 47.0804C36.0109 46.9534 36.0658 46.8288 36.1183 46.7019C36.1493 46.6324 36.1755 46.5653 36.2041 46.4958L36.5356 46.6324C37.0411 46.8336 37.561 47.0205 38.0951 47.1882C44.9892 49.3635 49.3937 49.5839 49.5058 49.5839C49.433 48.481 49.3001 47.3829 49.1076 46.2946C49.0424 45.8426 48.9581 45.3523 48.8548 44.8236ZM44.1594 44.2031C42.9956 45.3722 41.0116 45.2788 39.7286 43.9899C39.1571 43.4233 38.7996 42.6746 38.7175 41.8721H38.7008C38.5783 40.2899 37.8926 38.805 36.7693 37.6892L36.7383 37.6581C36.6081 37.5284 36.4694 37.4076 36.3233 37.2963C35.7426 36.7054 34.9772 36.3332 34.1557 36.2422C31.8163 35.9068 29.6916 37.8881 29.6749 40.497V40.5425C29.6641 42.1296 30.2247 43.6671 31.2535 44.8715L31.2392 44.8835C31.746 45.5093 32.0201 46.2928 32.0142 47.0995C32.0142 48.9227 30.6788 50.3984 29.031 50.3984C27.3832 50.3984 26.0502 48.9227 26.0502 47.0995C26.0443 46.2928 26.3184 45.5093 26.8252 44.8835V44.8715C27.854 43.6671 28.4146 42.1296 28.4038 40.5425V40.497C28.3871 37.8881 26.2576 35.9068 23.923 36.2422C23.196 36.3278 22.5106 36.6279 21.9533 37.1047C21.7109 37.2676 21.4842 37.4529 21.276 37.6581L21.245 37.6892C20.1199 38.8037 19.4339 40.2894 19.3135 41.8721H19.2944C19.2132 42.6743 18.8565 43.4231 18.2857 43.9899C17.0003 45.2788 15.0187 45.3722 13.8526 44.2031C12.6865 43.034 12.7842 41.0408 14.0672 39.7519C14.6316 39.178 15.3765 38.8182 16.1752 38.7338V38.717C17.7458 38.5932 19.2192 37.9042 20.3246 36.7765L20.3579 36.7429C20.6477 36.4476 20.8971 36.1148 21.0996 35.7535C21.4056 35.269 21.601 34.7225 21.6719 34.1532C21.7718 33.4596 21.6708 32.7518 21.381 32.1144C21.1321 31.4939 20.72 30.9532 20.1886 30.55C19.7469 30.2047 19.236 29.9595 18.6911 29.8313H18.672C18.2727 29.7156 17.8594 29.656 17.4439 29.654H17.3986C15.8187 29.6427 14.2882 30.2061 13.0895 31.24H13.0752C12.4527 31.7498 11.6725 32.0252 10.8693 32.0186C9.0546 32.0186 7.58564 30.6746 7.58564 29.024C7.58564 27.3733 9.04983 25.9958 10.8765 25.9958C11.6798 25.9879 12.4604 26.2635 13.0823 26.7744L13.0966 26.76C14.2948 27.7949 15.8257 28.3583 17.4057 28.346H17.451C17.8664 28.3436 18.2795 28.2848 18.6791 28.1711C18.6853 28.1733 18.692 28.1733 18.6982 28.1711C19.2428 28.0419 19.7535 27.7968 20.1958 27.4524C20.7316 27.0307 21.15 26.4774 21.4107 25.8458C21.6714 25.2141 21.7655 24.5257 21.6838 23.8468C21.6121 23.2777 21.4167 22.7314 21.1115 22.2465C20.9084 21.8856 20.6591 21.5529 20.3699 21.2571L20.3365 21.2259C19.2273 20.0967 17.7497 19.4076 16.1752 19.2854V19.2878C15.3768 19.2042 14.6319 18.8453 14.0672 18.272C12.7842 16.9831 12.6888 14.9899 13.8526 13.8208C15.0163 12.6517 17.0003 12.7452 18.2857 14.034C18.8565 14.6009 19.2132 15.3496 19.2944 16.1518H19.3135C19.4338 17.7339 20.1199 19.2188 21.245 20.3323L21.276 20.3659C21.4037 20.493 21.5382 20.613 21.6791 20.7252C22.2597 21.3148 23.0239 21.6869 23.8443 21.7793C26.1861 22.1147 28.3108 20.1335 28.3275 17.5246V17.4791C28.3388 15.8919 27.778 14.3543 26.7489 13.15H26.7608C26.254 12.5243 25.98 11.7407 25.9858 10.934C25.9858 9.10847 27.3212 7.63511 28.969 7.63511C30.6168 7.63511 31.9522 9.10847 31.9522 10.934C31.9571 11.7405 31.6831 12.5238 31.1772 13.15H31.1891C30.159 14.3537 29.5982 15.8917 29.6105 17.4791V17.5246C29.6272 20.1335 31.7567 22.1147 34.0913 21.7793C34.818 21.6928 35.5032 21.3928 36.061 20.9169C36.3034 20.754 36.5301 20.5687 36.7383 20.3635L36.7693 20.33C37.8924 19.215 38.5782 17.7309 38.7008 16.1494H38.7175C38.797 15.3416 39.1556 14.5872 39.731 14.0173C41.014 12.7284 42.998 12.6349 44.1617 13.8041C45.3255 14.9732 45.2325 16.9664 43.9495 18.2553C43.3848 18.8285 42.6399 19.1875 41.8415 19.271V19.2878C40.2673 19.4111 38.79 20.1 37.6802 21.2283L37.6468 21.2595C37.35 21.5619 37.0956 21.9037 36.8909 22.2753C36.5943 22.7535 36.404 23.2903 36.3329 23.8492C36.2352 24.543 36.337 25.2504 36.6262 25.888C36.6249 25.8943 36.6249 25.9008 36.6262 25.9072C36.8769 26.5219 37.289 27.0568 37.8185 27.4548C38.2642 27.8025 38.7802 28.0478 39.3304 28.1735C39.7308 28.2874 40.1448 28.3462 40.5609 28.3484H40.6062C42.1856 28.3613 43.716 27.7977 44.9129 26.7624L44.9296 26.7768C45.5515 26.2659 46.3321 25.9903 47.1354 25.9982C48.9478 25.9982 50.4167 27.3398 50.4167 28.9952C50.4167 30.6506 48.9478 31.9898 47.1354 31.9898C46.3323 31.9965 45.5521 31.7211 44.9296 31.2112H44.9129C43.7153 30.1771 42.1854 29.6137 40.6062 29.6253H40.5609C40.1446 29.6271 39.7305 29.6867 39.3304 29.8026C38.7802 29.9283 38.2642 30.1736 37.8185 30.5213C37.2896 30.9188 36.8776 31.4528 36.6262 32.0665C36.6253 32.0737 36.6253 32.0809 36.6262 32.0881C36.3369 32.7248 36.2351 33.4314 36.3329 34.1244C36.4039 34.6841 36.5942 35.2217 36.8909 35.7008C37.0957 36.0716 37.35 36.4126 37.6468 36.7142L37.6802 36.7477C38.7895 37.8764 40.2672 38.5647 41.8415 38.6858V38.7026C42.6402 38.787 43.3851 39.1468 43.9495 39.7208C45.2301 41.0312 45.3231 43.0245 44.1594 44.2031Z" fill="url(#paint0_radial_2001_9196)"/>
<g style="mix-blend-mode:soft-light">
<path d="M27.4289 20.179C26.1125 21.9423 23.5156 22.1627 21.6794 20.7252C21.5345 20.6126 21.3959 20.4918 21.2645 20.3635L21.2335 20.3299C20.1084 19.2164 19.4223 17.7315 19.3019 16.1494H19.2828C19.2036 15.3415 18.845 14.5871 18.2693 14.0173C16.984 12.7284 15.0023 12.6349 13.8362 13.804C12.6701 14.9732 12.7679 16.9664 14.0509 18.2553C14.6155 18.8285 15.3605 19.1875 16.1589 19.271V19.2878C17.7334 19.41 19.211 20.0991 20.3202 21.2283L20.3535 21.2595C20.6427 21.5553 20.8921 21.888 21.0952 22.2489C21.4095 22.7963 21.598 23.4075 21.6467 24.0376C21.6953 24.6677 21.6031 25.3008 21.3766 25.8904C21.1277 26.5109 20.7156 27.0516 20.1842 27.4548C19.742 27.7992 19.2313 28.0443 18.6867 28.1735C18.6805 28.1757 18.6738 28.1757 18.6676 28.1735C15.9705 28.758 13.2305 25.8305 11.5374 21.7434C11.4969 21.6476 11.4563 21.5494 11.4182 21.4511C11.3156 21.1972 11.2203 20.9385 11.1273 20.6797C11.0342 20.421 10.9484 20.1527 10.8626 19.8843C10.2115 17.8001 9.73699 15.941 9.39359 14.3599C9.30298 13.9454 9.2219 13.5477 9.15513 13.162C9.14082 13.0877 9.1289 13.0135 9.1122 12.9392C9.08597 12.7907 9.05735 12.6469 9.03112 12.5056C8.98104 12.2253 8.93335 11.9546 8.89043 11.7006C8.69849 10.6163 8.56555 9.5222 8.49219 8.4233C8.49219 8.4233 12.9181 8.61495 19.9028 10.819C20.437 10.9891 20.9593 11.176 21.4648 11.3772L21.7939 11.5138C26.599 13.5381 29.7825 17.0311 27.4289 20.179Z" fill="#996B3E"/>
</g>
<path style="mix-blend-mode:soft-light" d="M21.381 32.1072C21.6708 32.7446 21.7718 33.4524 21.6719 34.146C21.601 34.7153 21.4056 35.2618 21.0996 35.7463C19.5972 38.0653 15.6148 37.9384 11.537 36.2542L11.2509 36.1344C10.7501 35.9164 10.2517 35.6792 9.75331 35.4157C3.26462 32.009 0 29.0024 0 29.0024C0 29.0024 3.26462 25.991 9.75331 22.5843C10.2517 22.3256 10.7501 22.086 11.2509 21.8656L11.537 21.7458C15.6053 20.0688 19.5972 19.9323 21.0996 22.2513C21.4048 22.7362 21.6002 23.2825 21.6719 23.8516C21.7716 24.546 21.6706 25.2545 21.381 25.8928C21.1217 26.4454 20.7468 26.9353 20.2817 27.3289C19.8166 27.7226 19.2724 28.0106 18.6863 28.1735C18.6801 28.1757 18.6734 28.1757 18.6672 28.1735C18.2676 28.2872 17.8545 28.346 17.4391 28.3484H17.3938C15.8138 28.3607 14.2828 27.7973 13.0847 26.7624L13.0704 26.7768C12.452 26.2676 11.676 25.9914 10.8765 25.9958C9.06176 25.9958 7.5928 27.3374 7.5928 28.9928C7.5928 30.6482 9.06176 31.9874 10.8765 31.9874C11.6796 31.9941 12.4598 31.7187 13.0823 31.2088H13.0966C14.2953 30.1749 15.8259 29.6116 17.4057 29.6229H17.451C17.8666 29.6248 18.2799 29.6845 18.6791 29.8002H18.6982C19.2848 29.967 19.8285 30.2596 20.2916 30.6579C20.7548 31.0562 21.1264 31.5507 21.381 32.1072Z" fill="url(#paint1_radial_2001_9196)"/>
<g style="mix-blend-mode:soft-light">
<path d="M21.8458 46.4695C21.7814 46.4982 21.7194 46.5246 21.655 46.5485L21.4619 46.63C20.9563 46.8312 20.4341 47.0181 19.8999 47.1858C12.9152 49.3874 8.48926 49.5815 8.48926 49.5815C8.56204 48.4786 8.69499 47.3805 8.8875 46.2922C8.93042 46.0359 8.97811 45.7675 9.02819 45.4848C9.05442 45.3435 9.08304 45.1974 9.10927 45.0512C9.12596 44.977 9.13789 44.9027 9.1522 44.826C9.22851 44.4499 9.30958 44.0522 9.39066 43.6282C9.73406 42.047 10.2086 40.1927 10.8596 38.1181C10.9455 37.8497 11.0337 37.5838 11.1243 37.3227C11.2149 37.0615 11.3127 36.8028 11.4152 36.5489C11.4534 36.4506 11.4939 36.3548 11.5345 36.259C13.2276 32.1719 15.9676 29.242 18.6647 29.8289H18.6837C19.2287 29.9571 19.7396 30.2023 20.1813 30.5476C20.7127 30.9508 21.1248 31.4915 21.3736 32.112C21.6003 32.7012 21.6926 33.3339 21.6439 33.9636C21.5952 34.5934 21.4067 35.2041 21.0922 35.7511C20.8898 36.1124 20.6404 36.4452 20.3506 36.7405L20.3172 36.7741C19.2085 37.9035 17.7304 38.5919 16.156 38.7122V38.729C15.3573 38.8134 14.6124 39.1732 14.0479 39.7471C12.765 41.036 12.6696 43.0292 13.8333 44.1984C14.997 45.3675 16.9811 45.274 18.2664 43.9851C18.8373 43.4183 19.1939 42.6695 19.2751 41.8673H19.2942C19.4147 40.2846 20.1007 38.7989 21.2258 37.6844L21.2568 37.6533C21.4649 37.4481 21.6917 37.2628 21.934 37.0999C23.7535 35.8733 26.1644 36.1416 27.4188 37.8186C29.7725 40.9618 26.6152 44.4427 21.8458 46.4695Z" fill="#996B3E"/>
</g>
<path style="mix-blend-mode:soft-light" d="M36.0606 20.9097C35.5028 21.3856 34.8176 21.6856 34.0909 21.7722C31.7515 22.1076 29.6268 20.1263 29.6101 17.5174V17.4719C29.5978 15.8845 30.1586 14.3465 31.1887 13.1428H31.1768C31.6827 12.5166 31.9567 11.7333 31.9518 10.9268C31.9518 9.10128 30.614 7.62792 28.9686 7.62792C27.3232 7.62792 25.9854 9.10128 25.9854 10.9268C25.9796 11.7335 26.2536 12.5171 26.7604 13.1428H26.7485C27.7777 14.3471 28.3384 15.8847 28.3271 17.4719V17.5174C28.3104 20.1263 26.1809 22.1076 23.844 21.7722C23.0235 21.6797 22.2593 21.3077 21.6787 20.7181C19.9713 18.9356 20.2312 15.2463 21.7836 11.509C21.8122 11.4395 21.8385 11.37 21.8695 11.3029C21.9219 11.176 21.9768 11.0634 22.034 10.9244C22.1461 10.6729 22.2725 10.4213 22.3893 10.1746L22.5801 9.79843C23.0022 8.98389 23.4219 8.21966 23.8273 7.50335L24.1301 6.97869C24.1826 6.89244 24.2303 6.80859 24.2804 6.72474C24.4791 6.38775 24.6738 6.06273 24.8646 5.74969C24.96 5.59397 25.0578 5.44065 25.1484 5.28972L25.4274 4.8513C25.5657 4.63329 25.6992 4.42487 25.8304 4.22602C25.9615 4.02718 26.0903 3.83073 26.2167 3.64387L26.4552 3.27972L26.5744 3.10723C26.6555 2.98984 26.7318 2.87964 26.8129 2.76944C27.0036 2.49872 27.1849 2.24717 27.3542 2.01718L27.6499 1.6195C27.7429 1.49492 27.8335 1.37993 27.917 1.26733C28.1173 1.01099 28.2914 0.788188 28.4368 0.613302L28.6586 0.344982C28.8542 0.105412 28.9591 0 28.9591 0C28.9591 0 29.0616 0.114994 29.2572 0.344982L29.4789 0.613302C29.6268 0.792979 29.7985 1.01099 29.9988 1.26733L30.2683 1.6195L30.5616 2.01718C30.7333 2.25675 30.9145 2.49633 31.1053 2.76944L31.3438 3.10723C31.3843 3.16233 31.4224 3.21983 31.463 3.27972L31.7015 3.64387C31.8278 3.83073 31.959 4.02478 32.0878 4.22602L32.2213 4.42726C32.3072 4.56621 32.4002 4.70756 32.4908 4.8513L32.7698 5.28972C33.5663 6.56183 34.4391 8.06634 35.3405 9.79843C35.536 10.1746 35.7172 10.5459 35.8842 10.9244C35.9438 11.0514 35.9986 11.164 36.0511 11.3029C36.0797 11.3676 36.1083 11.4323 36.1322 11.4994C36.1386 11.5092 36.1442 11.5197 36.1489 11.5305C37.7633 15.402 37.9827 19.2136 36.0606 20.9097Z" fill="url(#paint2_radial_2001_9196)"/>
<g style="mix-blend-mode:soft-light">
<path d="M49.5197 8.4233C49.4465 9.5263 49.3128 10.6244 49.1191 11.7126C49.0452 12.1582 48.9593 12.6469 48.8544 13.174C48.7065 13.931 48.5277 14.7623 48.3083 15.6703C48.2201 16.0321 48.1247 16.4082 48.0245 16.7915C47.9768 16.9855 47.9244 17.182 47.8695 17.3808C47.8147 17.5797 47.7574 17.7785 47.7026 17.9822C47.5309 18.5955 47.3449 19.2303 47.1398 19.8987C47.0969 20.0329 47.054 20.1646 47.0086 20.2988C46.9204 20.5623 46.8274 20.8235 46.732 21.0822C46.6843 21.2116 46.6319 21.3385 46.5842 21.4655C46.5365 21.5925 46.5055 21.662 46.4649 21.7578C44.7694 25.8449 42.0318 28.7724 39.3324 28.1879C38.7822 28.0622 38.2661 27.8168 37.8205 27.4691C37.291 27.0712 36.8789 26.5363 36.6282 25.9215C36.6269 25.9152 36.6269 25.9087 36.6282 25.9024C36.4025 25.3182 36.3091 24.6909 36.3549 24.066C36.4007 23.4411 36.5845 22.8343 36.8929 22.2896C37.0976 21.918 37.3519 21.5763 37.6488 21.2739L37.6822 21.2427C38.792 20.1144 40.2693 19.4255 41.8434 19.3022V19.2878C42.6419 19.2042 43.3868 18.8453 43.9515 18.272C45.2345 16.9831 45.3275 14.9899 44.1637 13.8208C43 12.6517 41.016 12.7451 39.733 14.034C39.1614 14.6006 38.804 15.3494 38.7219 16.1518H38.7052C38.5825 17.7333 37.8968 19.2174 36.7736 20.3323L36.7426 20.3659C36.5345 20.5711 36.3078 20.7564 36.0654 20.9193C34.2459 22.1459 31.835 21.8776 30.5806 20.1886C28.2365 17.0502 31.3867 13.5717 36.1703 11.5401L36.5542 11.382C37.0598 11.1808 37.5797 10.9947 38.1138 10.8238C45.0079 8.65328 49.4124 8.42809 49.5245 8.42809L49.5197 8.4233Z" fill="#996B3E"/>
</g>
<path style="mix-blend-mode:soft-light" d="M57.9996 29.0024C57.9996 29.0024 54.7349 32.009 48.2463 35.4157C47.7502 35.6768 47.2518 35.914 46.7511 36.1344L46.4649 36.2542C42.3823 37.9432 38.3761 38.0653 36.8881 35.7223C36.5914 35.2433 36.4011 34.7056 36.33 34.146C36.2323 33.453 36.3341 32.7464 36.6234 32.1096C36.6225 32.1025 36.6225 32.0952 36.6234 32.0881C36.8857 31.5377 37.2633 31.0508 37.7305 30.6609C38.1977 30.2709 38.7433 29.9871 39.33 29.8289C39.73 29.7131 40.1441 29.6534 40.5605 29.6516H40.6058C42.1849 29.6401 43.7149 30.2035 44.9125 31.2376H44.9292C45.5517 31.7474 46.3319 32.0228 47.135 32.0162C48.9473 32.0162 50.4163 30.6722 50.4163 29.0216C50.4163 27.3709 48.9497 25.9958 47.1374 25.9958C46.3341 25.9879 45.5534 26.2635 44.9316 26.7744L44.9149 26.76C43.7179 27.7953 42.1875 28.3589 40.6081 28.346H40.5628C40.1467 28.3438 39.7328 28.285 39.3323 28.1711C38.7467 28.0121 38.202 27.728 37.7357 27.3381C37.2694 26.9482 36.8924 26.4617 36.6305 25.9119C36.6292 25.9056 36.6292 25.8991 36.6305 25.8928C36.3413 25.2552 36.2395 24.5478 36.3372 23.854C36.4083 23.2951 36.5986 22.7583 36.8952 22.2801C38.3832 19.9347 42.38 20.0568 46.4721 21.7482L46.7582 21.868C47.259 22.0836 47.7574 22.3232 48.2534 22.5867C54.7349 25.9958 57.9996 29.0024 57.9996 29.0024Z" fill="url(#paint3_radial_2001_9196)"/>
<path style="mix-blend-mode:soft-light" d="M36.2158 46.4934C36.1872 46.5629 36.161 46.63 36.13 46.6995C36.0775 46.8264 36.0227 46.951 35.963 47.078C35.9034 47.205 35.851 47.3176 35.7913 47.4517C35.6745 47.7033 35.5529 47.9548 35.4193 48.204L35.1022 48.8053C35.0497 48.9059 34.9972 49.0041 34.9424 49.1L34.6324 49.6701C34.4249 50.0463 34.2222 50.408 34.0195 50.7578C33.8168 51.1076 33.6213 51.4454 33.4257 51.7688C31.0411 55.7504 29.1834 57.8299 29.0427 57.9976C28.8639 57.7964 25.9426 54.519 22.6661 48.2064C22.6017 48.0818 22.5373 47.9668 22.4753 47.8302C22.2893 47.4541 22.1176 47.0804 21.9555 46.7019C21.9221 46.6252 21.8887 46.5485 21.8577 46.4623C20.2552 42.5932 20.0382 38.7793 21.9602 37.0879C22.5176 36.6112 23.203 36.3111 23.93 36.2254C26.2693 35.89 28.3941 37.8713 28.4108 40.4802V40.5257C28.4216 42.1128 27.8609 43.6503 26.8321 44.8548V44.8668C26.3253 45.4925 26.0513 46.2761 26.0571 47.0828C26.0571 48.9059 27.3949 50.3817 29.0379 50.3817C30.681 50.3817 32.0212 48.9059 32.0212 47.0828C32.027 46.2761 31.753 45.4925 31.2462 44.8668L31.2605 44.8548C30.2317 43.6503 29.671 42.1128 29.6818 40.5257V40.4802C29.6985 37.8713 31.828 35.89 34.1626 36.2254C34.9842 36.3165 35.7496 36.6887 36.3303 37.2796C38.0305 39.0668 37.7682 42.7657 36.2158 46.4934Z" fill="url(#paint4_radial_2001_9196)"/>
<g style="mix-blend-mode:soft-light">
<path d="M49.5203 49.5791C49.4082 49.5791 45.0037 49.3611 38.1096 47.1834C37.5755 47.0157 37.0556 46.8288 36.5501 46.6276L36.2186 46.491C31.4039 44.4643 28.2204 40.9689 30.5741 37.8186C31.8928 36.0577 34.4826 35.8373 36.3259 37.282C36.472 37.3932 36.6106 37.514 36.7408 37.6437L36.7718 37.6748C37.8952 38.7906 38.5809 40.2755 38.7034 41.8577H38.7201C38.8022 42.6602 39.1596 43.409 39.7312 43.9755C41.0142 45.2644 42.9982 45.3579 44.1619 44.1888C45.3257 43.0197 45.2327 41.0264 43.9497 39.7375C43.3853 39.1636 42.6404 38.8038 41.8417 38.7194V38.7026C40.2673 38.5858 38.7879 37.9018 37.6756 36.7765L37.6422 36.7429C37.3454 36.4413 37.0911 36.1004 36.8863 35.7295C36.5784 35.1832 36.3956 34.5748 36.3515 33.9485C36.3074 33.3223 36.4029 32.6941 36.6311 32.1096C36.6303 32.1025 36.6303 32.0952 36.6311 32.0881C36.8825 31.4743 37.2945 30.9404 37.8235 30.5428C38.2691 30.1952 38.7852 29.9498 39.3354 29.8241C42.0348 29.2372 44.7724 32.1671 46.4679 36.2542C46.5085 36.35 46.549 36.4458 46.5872 36.5441C46.6253 36.6423 46.6873 36.8004 46.735 36.9298C46.8304 37.1861 46.9234 37.4497 47.0116 37.7132C47.0569 37.8449 47.0999 37.9791 47.1428 38.1133C47.3479 38.7721 47.5339 39.4069 47.7056 40.0155C47.7604 40.2215 47.8176 40.4227 47.8725 40.6192C47.9273 40.8156 47.9798 41.0145 48.0275 41.2061C48.1277 41.5942 48.223 41.9679 48.3113 42.3297C48.5307 43.2377 48.7095 44.0714 48.8574 44.8236C48.9623 45.3531 49.0481 45.8418 49.1221 46.2898C49.3151 47.378 49.4481 48.4761 49.5203 49.5791Z" fill="#996B3E"/>
</g>
<defs>
<radialGradient id="paint0_radial_2001_9196" cx="0" cy="0" r="1" gradientUnits="userSpaceOnUse" gradientTransform="translate(30.3998 31.434) scale(24.7362 24.8506)">
<stop stop-color="#2B4637"/>
<stop offset="1" stop-color="#337350"/>
</radialGradient>
<radialGradient id="paint1_radial_2001_9196" cx="0" cy="0" r="1" gradientUnits="userSpaceOnUse" gradientTransform="translate(29.1622 28.0297) scale(24.2783 24.3907)">
<stop stop-color="#00989F"/>
<stop offset="1" stop-color="#D6F1A0"/>
</radialGradient>
<radialGradient id="paint2_radial_2001_9196" cx="0" cy="0" r="1" gradientUnits="userSpaceOnUse" gradientTransform="translate(29.1618 28.0273) scale(24.276 24.3883)">
<stop stop-color="#00989F"/>
<stop offset="1" stop-color="#D6F1A0"/>
</radialGradient>
<radialGradient id="paint3_radial_2001_9196" cx="0" cy="0" r="1" gradientUnits="userSpaceOnUse" gradientTransform="translate(29.1617 28.0297) scale(24.276 24.3883)">
<stop stop-color="#00989F"/>
<stop offset="1" stop-color="#D6F1A0"/>
</radialGradient>
<radialGradient id="paint4_radial_2001_9196" cx="0" cy="0" r="1" gradientUnits="userSpaceOnUse" gradientTransform="translate(29.1596 28.0297) scale(24.276 24.3883)">
<stop stop-color="#00989F"/>
<stop offset="1" stop-color="#D6F1A0"/>
</radialGradient>
</defs>
</svg>
